Patient4_TMGait_0pt6_02_right_18_GRF.mot
version=1
nRows=39
nColumns=19
inDegrees=no
endheader
time	F1x	F1y	F1z	M1x	M1y	M1z	F2x	F2y	F2z	M2x	M2y	M2z	EC1x	EC1y	EC1z	EC2x	EC2y	EC2z
21.52	22.1447	763.7612	70.1807	-278.611	-56.0024	759.3058	13.3484	-2.7577	-7.5853	1.6798	7.7482	-15.4939	-0.0592	0.0182	-0.0073	-0.0462	0.0165	0.9585
21.5321	24.1885	750.4429	69.5838	-273.5575	-55.0508	741.1161	8.6943	-0.50688	-5.3136	1.6457	5.5525	-8.8291	-0.0592	0.0182	-0.0073	-0.0462	0.0165	0.9585
21.5441	26.0656	736.8704	69.1183	-268.2329	-54.1836	723.0807	4.7855	1.4256	-3.2984	1.6146	3.5776	-3.1919	-0.0592	0.0182	-0.0073	-0.0462	0.0165	0.9585
21.5562	27.5717	724.4538	68.8623	-263.1492	-53.5127	706.8657	1.802	2.956	-1.7027	1.6044	2.0054	1.1615	-0.0592	0.0182	-0.0073	-0.0462	0.0165	0.9585
21.5683	28.5439	714.3844	68.8371	-258.7607	-53.1159	693.7239	-0.24958	4.0607	-0.55765	1.6125	0.87225	4.2127	-0.0592	0.0182	-0.0073	-0.0462	0.0165	0.9585
21.5804	28.915	707.3812	69.0371	-255.368	-53.0349	684.2827	-1.5339	4.7878	0.17446	1.6332	0.1523	6.1494	-0.0592	0.0182	-0.0073	-0.0462	0.0165	0.9585
21.5924	28.6863	703.6775	69.4222	-253.0975	-53.2629	678.6274	-2.2302	5.176	0.5818	1.6478	-0.23936	7.1711	-0.0592	0.0182	-0.0073	-0.0462	0.0165	0.9585
21.6045	27.9316	703.0631	69.9867	-251.9159	-53.8002	676.3688	-2.5394	5.2429	0.74408	1.6252	-0.37788	7.4619	-0.0592	0.0182	-0.0073	-0.0462	0.0165	0.9585
21.6166	26.7965	705.0258	70.6373	-251.6799	-54.5409	676.8218	-2.6172	4.9642	0.75915	1.5245	-0.36006	7.1275	-0.0592	0.0182	-0.0073	-0.0462	0.0165	0.9585
21.6286	25.4716	708.9211	71.339	-252.1883	-55.4097	679.1916	-2.588	4.2599	0.68059	1.2917	-0.23954	6.1704	-0.0592	0.0182	-0.0073	-0.0462	0.0165	0.9585
21.6407	24.1735	714.0874	71.9763	-253.2268	-56.2393	682.6803	-2.5347	3.0299	0.57382	0.87243	-0.081463	4.541	-0.0592	0.0182	-0.0073	-0.0462	0.0165	0.9585
21.6528	23.0901	719.8809	72.5366	-254.5762	-56.9614	686.5619	-2.4591	1.1501	0.46551	0.21087	0.070915	2.1347	-0.0592	0.0182	-0.0073	-0.0462	0.0165	0.9585
21.6649	22.4099	725.7032	72.9438	-256.0297	-57.4441	690.1742	-2.3594	-1.4501	0.38747	-0.72405	0.16703	-1.0992	-0.0592	0.0182	-0.0073	-0.0462	0.0165	0.9585
21.6769	22.2642	731.0291	73.2284	-257.3944	-57.6604	692.9813	-2.1479	-4.7538	0.3474	-1.9271	0.16016	-5.1405	-0.0592	0.0182	-0.0073	-0.0462	0.0165	0.9585
21.689	22.8065	735.4244	73.3828	-258.507	-57.5338	694.5269	-1.7509	-8.5222	0.36391	-3.3095	-0.002482	-9.6884	-0.0592	0.0182	-0.0073	-0.0462	0.0165	0.9585
21.7011	24.1264	738.5295	73.4698	-259.2226	-57.0648	694.4795	-1.0087	-12.2323	0.44131	-4.6695	-0.37983	-14.1476	-0.0592	0.0182	-0.0073	-0.0462	0.0165	0.9585
21.7131	26.3119	739.9909	73.5003	-259.4012	-56.2107	692.5205	0.2004	-14.8665	0.58498	-5.6248	-1.0178	-17.3169	-0.0592	0.0182	-0.0073	-0.0462	0.0165	0.9585
21.7252	29.3223	739.4466	73.4847	-258.8978	-54.9752	688.3891	2.0401	-14.8695	0.78682	-5.5834	-1.9527	-17.3899	-0.0592	0.0182	-0.0073	-0.0462	0.0165	0.9585
21.7373	33.0902	736.4913	73.3791	-257.56	-53.34	681.7844	4.5715	-9.9834	1.0228	-3.6939	-3.1636	-11.7113	-0.0592	0.0182	-0.0073	-0.0462	0.0165	0.9585
21.7494	37.4316	730.7026	73.1222	-255.235	-51.3206	672.4371	7.7808	2.668	1.2414	1.1326	-4.5629	3.0661	-0.0592	0.0182	-0.0073	-0.0462	0.0165	0.9585
21.7614	42.1366	721.6006	72.6432	-251.7602	-48.9474	660.0316	11.3844	26.4516	1.3566	10.1596	-5.9292	30.9018	-0.0592	0.0182	-0.0073	-0.0462	0.0165	0.9585
21.7735	46.9172	708.565	71.8225	-246.9318	-46.2366	644.1685	14.8021	64.6724	1.2417	24.6258	-6.8781	75.6897	-0.0592	0.0182	-0.0073	-0.0462	0.0165	0.9585
21.7856	51.4712	690.7139	70.5038	-240.4611	-43.1848	624.2218	16.9393	119.7452	0.7202	45.4188	-6.7867	140.3152	-0.0592	0.0182	-0.0073	-0.0462	0.0165	0.9585
21.7976	55.4373	666.84	68.4539	-231.9533	-39.7326	599.2702	16.1398	191.7226	-0.42053	72.5224	-4.7832	224.8885	-0.0592	0.0182	-0.0073	-0.0462	0.0165	0.9585
21.8097	58.386	635.5163	65.4533	-220.9347	-35.8547	568.1904	10.1165	276.3454	-2.4235	104.2797	0.2493	324.4881	-0.0592	0.0182	-0.0073	-0.0462	0.0165	0.9585
21.8218	59.8249	595.443	61.3187	-206.9697	-31.5711	529.9285	-2.5634	363.8782	-5.7378	136.9495	9.2922	427.8135	-0.0592	0.0182	-0.0073	-0.0462	0.0165	0.9585
21.8339	59.2878	546.0547	56.0709	-189.8585	-27.0797	484.0496	-19.2758	442.6526	-11.4499	166.033	22.4827	521.136	-0.0592	0.0182	-0.0073	-0.0462	0.0165	0.9585
21.8459	56.4878	488.0568	49.9274	-169.8181	-22.6765	431.19	-36.391	506.3679	-19.5816	189.1209	38.3836	596.7148	-0.0592	0.0182	-0.0073	-0.0462	0.0165	0.9585
21.858	51.4096	423.518	43.3114	-147.5091	-18.7263	373.1845	-51.6548	556.1708	-29.0415	206.6621	54.9436	655.514	-0.0592	0.0182	-0.0073	-0.0462	0.0165	0.9585
21.8701	44.4115	355.3314	36.6568	-123.8947	-15.4664	312.4884	-63.7642	595.5968	-38.7148	220.1073	70.3938	701.485	-0.0592	0.0182	-0.0073	-0.0462	0.0165	0.9585
21.8821	36.0282	286.9893	30.2357	-100.1632	-12.9291	252.088	-72.72	627.9218	-47.3501	230.8314	83.3422	738.4892	-0.0592	0.0182	-0.0073	-0.0462	0.0165	0.9585
21.8942	27.0317	222.0456	24.2404	-77.5551	-11.0069	194.9522	-78.7721	655.6174	-54.4762	239.8784	93.3518	769.4293	-0.0592	0.0182	-0.0073	-0.0462	0.0165	0.9585
21.9063	18.2677	163.6775	18.7794	-57.1902	-9.4816	143.7686	-82.2467	680.5888	-59.9618	248.0206	100.4542	796.5261	-0.0592	0.0182	-0.0073	-0.0462	0.0165	0.9585
21.9184	10.5934	113.9916	13.9898	-39.8293	-8.1544	100.2512	-83.4559	703.5017	-64.2615	255.5365	105.2898	820.5429	-0.0592	0.0182	-0.0073	-0.0462	0.0165	0.9585
21.9304	4.5005	73.9051	9.904	-25.8119	-6.8586	65.1669	-82.9213	724.068	-67.5979	262.3319	108.3525	841.2129	-0.0592	0.0182	-0.0073	-0.0462	0.0165	0.9585
21.9425	0.22799	43.2603	6.5589	-15.099	-5.5357	38.3258	-81.2219	741.5331	-70.3089	268.1325	110.2477	857.8009	-0.0592	0.0182	-0.0073	-0.0462	0.0165	0.9585
21.9546	-2.2944	21.2881	3.8881	-7.4239	-4.1494	19.0742	-78.8605	755.4162	-72.3538	272.7655	111.1668	869.8842	-0.0592	0.0182	-0.0073	-0.0462	0.0165	0.9585
21.9666	-3.3374	6.7763	1.8844	-2.3644	-2.7981	6.3321	-76.1239	765.4826	-73.837	276.1418	111.3344	877.2728	-0.0592	0.0182	-0.0073	-0.0462	0.0165	0.9585
21.9787	-3.435	-1.6761	0.50495	0.57643	-1.6403	-1.0899	-73.1318	771.6093	-74.5814	278.2251	110.618	879.8487	-0.0592	0.0182	-0.0073	-0.0462	0.0165	0.9585
